
<svg viewBox="0 0 120 56" fill="none" xmlns="http://www.w3.org/2000/svg">
<path d="M63.0207 32.3789C63.0207 30.0149 61.8554 28.3968 59.5247 27.5244C59.0555 27.4415 58.6027 27.3535 58.1662 27.2605C57.7298 27.1675 57.2772 27.0711 56.8086 26.9712C56.3383 26.8708 55.877 26.7744 55.4247 26.6819C54.9724 26.5895 54.5191 26.493 54.0647 26.3926C52.4051 26.0228 51.5752 25.3018 51.5752 24.2297C51.5752 23.49 51.9776 22.903 52.7823 22.4687C53.522 22.0988 54.3772 21.9139 55.3479 21.9139C56.3713 21.9139 57.235 22.1067 57.9388 22.4924C58.7435 22.9283 59.1458 23.7164 59.1458 24.8567H62.5666C62.5666 22.6095 61.7534 20.9496 60.127 19.877C58.7353 18.938 57.1422 18.4683 55.3479 18.4678C53.5699 18.4678 51.9847 18.9375 50.5925 19.877C48.9487 20.967 48.127 22.4174 48.1276 24.2281C48.1276 26.6434 49.2594 28.2782 51.5229 29.1325C51.9752 29.2335 52.4447 29.3426 52.9313 29.4599C53.418 29.5772 53.8959 29.6778 54.3651 29.7618L54.3405 29.7365C54.8097 29.8374 55.2749 29.9381 55.7362 30.0385C56.1975 30.1388 56.6543 30.231 57.1066 30.3151V30.2889C58.7503 30.6751 59.5722 31.371 59.5722 32.3765C59.5722 33.1982 59.1194 33.8187 58.2138 34.2383C57.4592 34.5902 56.5034 34.7661 55.3463 34.7661C54.2224 34.7661 53.2666 34.5812 52.4788 34.2113L52.5041 34.2367C51.5816 33.8008 51.1203 32.9791 51.1203 31.7718H47.7012C47.7012 34.0856 48.5899 35.779 50.3674 36.8521C51.7755 37.7414 53.4357 38.1858 55.3479 38.1852C57.2431 38.1852 58.9115 37.7493 60.3529 36.8775C62.1314 35.7563 63.0207 34.2568 63.0207 32.3789Z" fill="#08A0AB"/>
<path d="M119.956 46.8543V45.8486H117.002V44.6027H119.311V43.6048H117.002V42.3589H119.956V41.3619H116.005V46.8543H119.956ZM115.122 45.5862V43.6048H112.512V44.6019H114.125V45.3199C113.875 45.6109 113.542 45.8185 113.17 45.9151C112.799 46.0117 112.407 45.9926 112.047 45.8604C111.687 45.7281 111.376 45.4891 111.156 45.1753C110.935 44.8614 110.816 44.4877 110.813 44.1041C110.811 43.8579 110.858 43.6138 110.954 43.3868C111.049 43.1599 111.19 42.9549 111.368 42.7845C111.646 42.4982 112.011 42.3119 112.406 42.2546C112.801 42.1972 113.204 42.2721 113.552 42.4675C113.843 42.6279 114.096 42.8493 114.293 43.1166L115.114 42.5444C114.823 42.1435 114.446 41.8129 114.01 41.5766C113.625 41.3745 113.199 41.2627 112.764 41.2498C112.329 41.2369 111.897 41.3231 111.5 41.502C111.104 41.6809 110.753 41.9478 110.475 42.2823C110.197 42.6169 109.999 43.0104 109.895 43.433C109.792 43.8556 109.786 44.2962 109.878 44.7214C109.97 45.1466 110.158 45.5453 110.427 45.8872C110.696 46.229 111.04 46.5051 111.431 46.6945C111.823 46.8839 112.253 46.9817 112.688 46.9804C112.925 46.9806 113.161 46.9511 113.391 46.8924C114.087 46.7143 114.691 46.2826 115.084 45.6821L115.122 45.5862ZM108.095 44.1041C108.093 44.566 107.909 45.0084 107.582 45.335C107.255 45.6616 106.813 45.8459 106.351 45.8478H105.241V42.3605H106.351C106.813 42.3628 107.255 42.5472 107.581 42.8737C107.908 43.2002 108.092 43.6424 108.095 44.1041ZM109.092 44.1041C109.089 43.3779 108.799 42.6822 108.286 42.1686C107.772 41.6549 107.077 41.365 106.35 41.3619H104.246V46.8543H106.35C107.078 46.8516 107.775 46.5609 108.288 46.0459C108.802 45.5308 109.091 44.8332 109.092 44.1057V44.1041ZM103.3 46.8543V45.8486H100.346V44.6027H102.655V43.6048H100.346V42.3589H103.3V41.3619H99.3487V46.8543H103.3ZM95.2068 46.8543V41.3619H94.2026V43.6048H91.7393V41.3619H90.7423V46.8543H91.7393V44.6027H94.2026V46.8543H95.2068ZM90.048 42.3589V41.3619H85.7126V42.3589H87.377V46.8543H88.3836V42.3605L90.048 42.3589ZM85.016 46.8543V41.3619H84.0189V46.8543H85.016ZM83.4475 41.3634H82.4068L81.4019 44.8507L80.3977 41.3634H79.4664L78.4551 44.8507L77.4581 41.3634H76.4158L77.9851 46.8543H78.9235L79.9348 43.3575L80.9335 46.8543H81.8719L83.4475 41.3634ZM72.6559 46.8543V45.8486H69.702V44.6027H72.0107V43.6048H69.702V42.3589H72.6559V41.3619H68.705V46.8543H72.6559ZM66.8202 44.1041C66.8234 44.3336 66.7796 44.5612 66.6914 44.7731C66.6032 44.9849 66.4725 45.1764 66.3074 45.3358C66.1474 45.5 65.9558 45.6301 65.7441 45.7182C65.5324 45.8064 65.3051 45.8507 65.0758 45.8486H63.9725V42.3613H65.0821C65.3115 42.3591 65.5389 42.4035 65.7506 42.4918C65.9623 42.5801 66.1539 42.7104 66.3138 42.8749C66.4776 43.0344 66.607 43.2257 66.6941 43.4371C66.7812 43.6485 66.8241 43.8755 66.8202 44.1041ZM67.8173 44.1041C67.8144 43.3779 67.5246 42.6822 67.0111 42.1686C66.4977 41.6549 65.802 41.365 65.0758 41.3619H62.9715V46.8543H65.0758C65.8033 46.8516 66.5001 46.5609 67.0138 46.0459C67.5276 45.5308 67.8164 44.8332 67.8173 44.1057V44.1041ZM59.9439 43.0041L60.5597 44.6978H59.3281L59.9439 43.0041ZM62.4144 46.8543L60.4131 41.3619H59.4819L57.4806 46.8543H58.5435L58.9691 45.6964H60.9188L61.3515 46.8543H62.4144ZM55.8971 42.9834C55.8984 43.0721 55.8772 43.1596 55.8357 43.2379C55.7941 43.3162 55.7334 43.3827 55.6593 43.4313C55.5032 43.5485 55.3124 43.6105 55.1172 43.6072H53.7564V42.3589H55.1204C55.3156 42.3557 55.5064 42.4176 55.6625 42.5349C55.736 42.5837 55.796 42.6502 55.837 42.7283C55.878 42.8065 55.8986 42.8937 55.8971 42.9819V42.9834ZM57.5615 46.8543L56.2141 44.7802H56.2212L56.0817 44.586C56.0408 44.5285 55.9969 44.4732 55.9502 44.4204C56.1707 44.3139 56.3677 44.1643 56.5295 43.9805C56.6631 43.8267 56.7644 43.6477 56.8276 43.454C56.8908 43.2604 56.9145 43.056 56.8973 42.8531C56.8802 42.6501 56.8225 42.4526 56.7278 42.2723C56.633 42.092 56.5031 41.9326 56.3457 41.8033C56.0051 41.5122 55.5699 41.3558 55.1219 41.3634H52.7593V46.8543H53.7564V44.6027H54.35C54.7267 44.6027 54.9933 44.7247 55.1497 44.9688L56.3734 46.8543H57.5615ZM52.0626 42.3605V41.3619H47.7305V42.3589H49.3949V46.8543H50.3998V42.3605H52.0626Z" fill="white"/>
<path d="M119.999 37.7998L113.347 28.3477L111.23 25.3486L106.69 18.9209H102.455L109.084 28.3477L102.455 37.7998H106.69L111.226 31.3721L115.739 37.7998H119.999Z" fill="white"/>
<path d="M97.8442 28.3479C97.8442 30.1296 97.2141 31.6418 95.9539 32.8846C94.6773 34.1622 93.1651 34.8007 91.4172 34.8002C89.653 34.8002 88.1408 34.1616 86.8806 32.8846C85.604 31.6244 84.9655 30.1122 84.965 28.3479C84.965 26.6006 85.6035 25.0883 86.8806 23.8113C88.1244 22.5511 89.6366 21.921 91.4172 21.921C93.1815 21.921 94.6937 22.5511 95.9539 23.8113C97.2141 25.0714 97.8442 26.5837 97.8442 28.3479ZM101.297 28.3479C101.297 25.6262 100.331 23.299 98.399 21.3662C96.4667 19.4334 94.1395 18.4672 91.4172 18.4678C88.7125 18.4678 86.3768 19.4339 84.4102 21.3662C82.4943 23.2821 81.5366 25.6093 81.5371 28.3479C81.5376 31.0865 82.4953 33.4137 84.4102 35.3296C86.3424 37.2619 88.6781 38.228 91.4172 38.228C94.1564 38.228 96.4836 37.2619 98.399 35.3296C100.331 33.3963 101.299 31.0691 101.301 28.3479H101.297Z" fill="white"/>
<path d="M79.5952 22.3492V18.9214H66.0098V37.7995H69.4376V30.0617H77.3776V26.6339H69.4376V22.3492H79.5952Z" fill="white"/>
<path fill-rule="evenodd" clip-rule="evenodd" d="M115.755 18.9243L114.617 20.5419V26.5655L119.988 18.9291H115.758" fill="white"/>
<path fill-rule="evenodd" clip-rule="evenodd" d="M31.4021 9.30184C30.8553 9.27172 30.3995 9.46035 30.3853 9.72665C30.371 9.99295 30.8022 10.2307 31.349 10.2608C31.8959 10.291 32.3516 10.1023 32.3659 9.83602C32.3802 9.56972 31.949 9.33275 31.4021 9.30184ZM38.0542 13.5349C36.9929 14.4979 34.5581 15.4276 32.0608 15.7367C38.5741 16.45 41.1753 14.2831 41.402 12.95C41.5399 12.1297 40.9454 12.0259 40.2924 12.0203C39.7043 12.0148 38.9402 12.0782 38.2261 12.0203C34.5526 11.7176 33.443 6.98833 28.5148 6.35428C28.5677 3.91318 28.0998 2.02132 27.1112 0.678711C25.4394 4.35675 23.0506 7.82925 19.9448 11.0962C13.5551 18.7381 12.2403 27.4825 16.303 35.9511C16.3584 27.4706 18.5443 15.4284 28.7724 14.0992C31.5155 13.7434 34.3568 14.188 38.0542 13.5349Z" fill="#08A0AB"/>
<path fill-rule="evenodd" clip-rule="evenodd" d="M20.471 37.8911C20.6723 37.9968 20.8742 38.1041 21.0765 38.2129L22.4778 33.3339L22.607 38.8169L22.6141 39.1077C23.0268 39.3624 23.4394 39.6287 23.8521 39.9066L26.3883 41.7517C26.6427 41.9467 26.9106 42.148 27.1912 42.3398L27.9108 39.8329L29.4254 34.5608L29.5546 40.0445L29.6434 43.7751C31.1944 44.4885 32.8755 44.8729 34.4408 44.3973C38.0866 43.2877 39.8493 37.9514 40.6442 34.6939L40.7504 34.2762C36.2867 29.803 25.7749 22.6017 30.2774 16.5029C16.3148 20.8494 20.4496 37.1699 20.471 37.8911Z" fill="#08A0AB"/>
<path fill-rule="evenodd" clip-rule="evenodd" d="M21.4111 39.8938C21.6356 40.0349 21.8602 40.1805 22.0847 40.3305C24.5306 41.9648 26.1879 43.6894 28.9872 44.9274C35.4165 47.7733 39.7822 44.4791 42.0844 35.0449C43.7614 47.0341 35.6559 57.6576 23.9861 55.7642C19.6317 55.0572 16.1397 52.5876 12.5391 49.8738C14.7733 48.4203 17.151 46.8787 19.3345 45.4735C19.3345 45.4735 17.2873 44.8062 14.8724 43.8495C14.8724 43.8495 17.9848 42.1059 21.4111 39.8938Z" fill="#08A0AB"/>
<path fill-rule="evenodd" clip-rule="evenodd" d="M0 42.3721C6.0885 36.3063 12.6945 35.1703 19.8181 38.9641C18.2378 39.9072 15.2212 41.6818 11.0745 44.0056C11.0745 44.0056 12.9244 44.5944 15.5605 45.6573L11.0682 48.7578C7.80203 46.2985 4.34406 43.8043 0 42.3721Z" fill="white"/>
<path fill-rule="evenodd" clip-rule="evenodd" d="M32.0922 15.7404H32.0605H32.0922ZM20.4693 37.8926C19.1408 37.1231 17.7465 36.4735 16.3027 35.9516C16.3582 27.4711 18.5433 15.4289 28.7722 14.0998L28.9006 14.0839L29.0298 14.0688L29.159 14.0546L29.2881 14.0419L29.4173 14.03L29.5473 14.0189L29.6765 14.0094L29.8073 13.9999L29.9373 13.992L30.068 13.984L30.1988 13.9777L30.3304 13.9714L30.4619 13.9658L30.5943 13.9611L30.7267 13.9571L30.8598 13.9531H30.993H31.1269H31.2608H31.3956H31.5311H31.6666H31.803H31.9393H32.0772H32.7723H32.9133H33.0552H33.1979H33.3405H33.4848H33.629H33.7749H33.9207L34.0681 13.9492H34.2155L34.3645 13.9444L34.5143 13.9389L34.6641 13.9325L34.8155 13.9262L34.9677 13.9183L35.1206 13.9103L35.2792 13.9008L35.4337 13.8913L35.5922 13.8802L35.7507 13.8683L35.9092 13.8556L36.0678 13.8414L36.2263 13.8263L36.3848 13.8105L36.5433 13.793L36.7066 13.774L36.8714 13.755L37.0363 13.7336L37.2027 13.7114L37.3707 13.6876L37.5396 13.6623L37.71 13.6353L37.8812 13.6068L38.0531 13.5767C36.9911 14.5396 34.5563 15.4701 32.059 15.7792C31.3211 15.8585 30.7219 16.1026 30.2733 16.5456C29.1879 16.8788 28.1397 17.3226 27.145 17.87C26.9818 17.954 26.828 18.042 26.683 18.1339L26.6124 18.1799C17.8665 23.5281 19.9921 35.1876 20.4059 37.5383C20.428 37.6287 20.4479 37.761 20.4693 37.8926Z" fill="white"/>
</svg>